<svg width="955" height="897" viewBox="0 0 955 897" fill="none" xmlns="http://www.w3.org/2000/svg">
<path d="M351.37 79.8642C349.234 82.3822 324.505 88.3867 323.469 88.5803C317.967 89.7425 312.529 91.0338 306.962 91.8731C301.136 92.777 295.31 93.8101 289.484 94.7785C276.601 96.9092 264.496 100.848 253.103 107.046C244.104 111.953 237.113 119.055 231.352 127.384C224.231 137.585 220.735 149.077 218.469 161.215C215.621 176.259 216.786 191.173 220.541 205.571C225.008 222.745 233.035 238.499 244.558 252.38C253.879 263.55 264.302 273.235 276.796 280.853C289.872 288.795 303.402 295.703 318.291 299.512C330.655 302.676 343.084 305.065 355.966 305.581C366.971 306.033 377.911 306.744 388.852 305.452C401.475 303.967 414.098 301.708 426.204 297.769C440.704 293.056 454.428 286.599 467.245 278.077C479.998 269.619 491.262 259.676 500.972 247.99C510.229 236.885 518.127 224.747 522.788 211.124C527.643 197.049 535.541 185.879 547.128 176.84C558.069 168.317 568.102 158.826 574.9 146.624C579.884 137.649 583.962 128.287 585.451 117.699C586.94 107.239 587.329 96.8446 586.228 86.5788C585.322 78.6374 583.121 70.6314 579.56 63.2711C576.194 56.2981 572.699 49.3252 567.908 43.3853C560.205 33.8943 552.307 24.5324 541.432 18.076C534.246 13.8147 527.125 9.42436 519.357 6.32527C510.812 2.96792 502.008 0.772725 492.686 0.837289C489.644 0.837289 486.536 0.514467 483.494 0.127081C479.027 -0.389435 474.69 0.772725 470.482 1.74119C463.167 3.41987 455.593 4.84028 448.99 8.45589C438.956 13.8793 429.181 19.6901 420.054 26.7276C412.868 32.2802 405.488 37.7036 399.08 44.0955C391.57 51.5204 381.731 56.5564 375.969 65.7891C375.71 66.2411 375.193 66.693 374.739 66.8221C366 69.0173 360.174 76.2485 352.082 79.6059C347.615 81.4783 343.343 83.6735 338.488 84.3837C334.41 85.9978 332.856 85.9978 328.389 87.8701C327.548 88.193 315.507 89.7425 324.505 88.3867" fill="#B6B6F6"/>
<path d="M351.37 79.8642C349.234 82.3822 324.505 88.3867 323.469 88.5803C317.967 89.7425 312.529 91.0338 306.962 91.8731C301.136 92.777 295.31 93.8101 289.484 94.7785C276.601 96.9092 264.496 100.848 253.103 107.046C244.104 111.953 237.113 119.055 231.352 127.384C224.231 137.585 220.735 149.077 218.469 161.215C215.621 176.259 216.786 191.173 220.541 205.571C225.008 222.745 233.035 238.499 244.558 252.38C253.879 263.55 264.302 273.235 276.796 280.853C289.872 288.795 303.402 295.703 318.291 299.512C330.655 302.676 343.084 305.065 355.966 305.581C366.971 306.033 377.911 306.744 388.852 305.452C401.475 303.967 414.098 301.708 426.204 297.769C440.704 293.056 454.428 286.599 467.245 278.077C479.998 269.619 491.262 259.676 500.972 247.99C510.229 236.885 518.127 224.747 522.788 211.124C527.643 197.049 535.541 185.879 547.128 176.84C558.069 168.317 568.102 158.826 574.9 146.624C579.884 137.649 583.962 128.287 585.451 117.699C586.94 107.239 587.329 96.8446 586.228 86.5789C585.322 78.6374 583.121 70.6314 579.56 63.2711C576.194 56.2981 572.699 49.3252 567.908 43.3853C560.205 33.8943 552.307 24.5324 541.432 18.076C534.246 13.8147 527.125 9.42436 519.357 6.32527C510.812 2.96792 502.008 0.772725 492.686 0.837289C489.644 0.837289 486.536 0.514467 483.494 0.127081C479.027 -0.389435 474.69 0.772725 470.482 1.74119C463.167 3.41987 455.593 4.84028 448.99 8.45589C438.956 13.8793 429.181 19.6901 420.054 26.7276C412.868 32.2802 405.488 37.7036 399.08 44.0955C391.57 51.5204 381.731 56.5564 375.969 65.7891C375.71 66.2411 375.193 66.693 374.739 66.8221C366 69.0173 360.174 76.2485 352.082 79.6059C347.615 81.4783 343.343 83.6735 338.488 84.3837C334.41 85.9978 332.856 85.9978 328.389 87.8701C327.548 88.193 315.507 89.7425 324.505 88.3867" stroke="white" stroke-miterlimit="10"/>
<path d="M280.097 168.339C282.585 160.748 283.095 171.848 279.332 180.268C275.441 186.647 272.187 193.536 271.039 200.999C268.934 215.161 271.613 228.365 280.352 239.847C287.879 249.734 297.065 257.835 307.654 264.406C318.052 270.912 329.47 274.995 341.335 277.61C351.349 279.843 361.492 281.31 371.826 280.736C375.717 280.544 379.608 281.182 383.563 281.118C392.175 280.991 400.148 277.419 408.696 276.781C411.949 276.526 415.266 274.484 418.647 273.464C427.833 270.721 436.253 266.256 444.609 261.727C451.817 257.835 458.069 252.796 464.001 247.246C472.038 239.783 478.035 230.98 483.712 221.795C487.539 215.607 489.325 208.654 491.558 201.892C493.663 195.513 495.258 189.007 498.575 182.947C502.53 175.803 507.696 169.679 513.438 164.129C521.347 156.475 530.086 149.585 536.019 140.145C546.416 123.559 552.158 105.762 549.096 85.8601C541.122 60.6634 542.015 63.9166 548.649 82.862" fill="#B6B6F6"/>
<path d="M280.097 168.339C282.585 160.748 283.095 171.848 279.332 180.268C275.441 186.647 272.187 193.536 271.039 200.999C268.934 215.161 271.613 228.365 280.352 239.847C287.879 249.734 297.065 257.835 307.654 264.406C318.052 270.912 329.47 274.995 341.335 277.61C351.349 279.843 361.492 281.31 371.826 280.736C375.717 280.544 379.608 281.182 383.563 281.118C392.175 280.991 400.148 277.419 408.696 276.781C411.949 276.526 415.266 274.484 418.647 273.464C427.833 270.721 436.253 266.256 444.609 261.727C451.817 257.835 458.069 252.796 464.001 247.246C472.038 239.783 478.035 230.98 483.712 221.795C487.539 215.607 489.325 208.654 491.558 201.892C493.663 195.513 495.258 189.007 498.575 182.947C502.53 175.803 507.696 169.679 513.438 164.129C521.347 156.475 530.086 149.585 536.019 140.145C546.416 123.559 552.157 105.762 549.096 85.8601C541.122 60.6634 542.015 63.9166 548.649 82.862" stroke="white" stroke-width="3.5" stroke-miterlimit="10"/>
<path d="M468.211 191.813C468.466 183.585 461.896 179.949 456.729 175.738C449.393 169.679 440.782 167.382 431.213 168.785C427.769 169.296 424.452 168.53 422.666 164.958C421.581 162.726 419.54 161.45 417.945 159.727C407.293 147.863 406.463 136.7 414.437 123.623C418.328 117.244 420.561 110.355 419.349 102.381C418.009 93.7695 416.988 84.7753 419.349 76.3551C423.048 63.3421 430.512 52.9445 441.739 44.5244C455.517 34.1905 470.954 31.5752 487.093 31.4476C498.192 31.32 509.228 34.063 518.604 40.1867C529.831 46.8846 542.27 61.0457 548.203 80.8841C549.925 92.43 550.627 109.206 548.777 83.053" fill="#B6B6F6"/>
<path d="M468.211 191.813C468.466 183.585 461.896 179.949 456.729 175.738C449.393 169.679 440.782 167.382 431.213 168.785C427.769 169.296 424.452 168.53 422.666 164.958C421.581 162.726 419.54 161.45 417.945 159.727C407.293 147.863 406.463 136.7 414.437 123.623C418.328 117.244 420.561 110.355 419.349 102.381C418.009 93.7695 416.988 84.7753 419.349 76.3551C423.048 63.3421 430.512 52.9445 441.739 44.5244C455.517 34.1905 470.954 31.5752 487.093 31.4476C498.192 31.32 509.228 34.063 518.605 40.1867C529.831 46.8846 542.27 61.0457 548.203 80.8841C549.925 92.43 550.627 109.206 548.777 83.053" stroke="white" stroke-width="3.5" stroke-miterlimit="10"/>
<path d="M326.281 235.892C322.071 224.729 326.409 214.905 331.767 205.656C335.722 198.83 340.889 192.77 345.545 186.391C348.225 182.692 351.797 180.204 356.39 179.247" fill="#B6B6F6"/>
<path d="M326.281 235.892C322.071 224.729 326.409 214.905 331.767 205.656C335.722 198.83 340.889 192.77 345.545 186.391C348.225 182.692 351.797 180.204 356.39 179.247" stroke="white" stroke-width="3.5" stroke-miterlimit="10"/>
<path d="M390.197 131.979C392.366 138.231 393.578 144.482 391.664 151.18C389.687 157.942 388.156 164.767 386.433 171.592C385.158 176.759 386.242 179.694 389.878 181.544C391.983 182.628 394.024 182.054 395.683 181.161C402.891 177.461 410.609 175.037 417.945 171.784C420.561 170.636 422.921 168.977 424.005 166.17" fill="#B6B6F6"/>
<path d="M390.197 131.979C392.366 138.231 393.578 144.482 391.664 151.18C389.687 157.942 388.156 164.767 386.433 171.593C385.158 176.759 386.242 179.694 389.878 181.544C391.983 182.628 394.024 182.054 395.683 181.161C402.891 177.461 410.609 175.037 417.945 171.784C420.561 170.636 422.921 168.977 424.005 166.17" stroke="white" stroke-width="3.5" stroke-miterlimit="10"/>
<path d="M297.129 128.344C301.913 128.471 304.465 124.58 306.442 121.646C309.823 116.67 314.543 115.331 319.519 113.353C325.77 110.802 332.277 109.526 338.783 108.697C343.759 108.059 348.989 109.654 353.965 107.612C359.961 111.184 366.914 113.29 371.124 119.477C376.546 127.451 375.972 135.807 373.229 144.419C371.443 150.032 369.019 155.263 365.702 160.174C362.895 164.385 360.663 168.914 358.622 173.506C357.218 176.76 356.58 179.503 357.473 183.139C358.558 187.54 358.494 192.26 358.877 196.917C360.089 211.27 369.976 219.945 382.606 221.795C390.58 222.943 398.745 221.986 406.718 220.774C413.225 219.817 419.285 216.755 425.983 216.692" fill="#B6B6F6"/>
<path d="M297.129 128.344C301.913 128.471 304.465 124.58 306.442 121.646C309.823 116.67 314.543 115.331 319.519 113.353C325.77 110.802 332.277 109.526 338.783 108.697C343.759 108.059 348.989 109.654 353.965 107.612C359.961 111.184 366.914 113.29 371.124 119.477C376.546 127.451 375.972 135.807 373.229 144.419C371.443 150.032 369.019 155.263 365.702 160.174C362.895 164.385 360.663 168.914 358.622 173.506C357.218 176.76 356.58 179.503 357.473 183.139C358.558 187.54 358.494 192.26 358.877 196.917C360.089 211.27 369.976 219.945 382.606 221.795C390.58 222.943 398.745 221.986 406.719 220.774C413.225 219.817 419.285 216.755 425.983 216.692" stroke="white" stroke-width="3.5" stroke-miterlimit="10"/>
<path d="M282.713 169.233C279.651 167.702 276.398 167.893 273.208 168.595C260.514 171.21 254.135 164.704 256.304 151.691C258.601 137.848 265.235 126.813 276.653 118.712C281.692 115.139 287.306 112.843 293.366 111.759C299.553 110.674 305.039 112.078 309.313 116.989" fill="#B6B6F6"/>
<path d="M282.713 169.233C279.651 167.702 276.398 167.893 273.208 168.595C260.514 171.21 254.135 164.704 256.304 151.691C258.601 137.848 265.235 126.813 276.653 118.712C281.692 115.139 287.306 112.843 293.366 111.759C299.553 110.674 305.039 112.078 309.313 116.989" stroke="white" stroke-width="3.5" stroke-miterlimit="10"/>
<path d="M354.348 107.102C355.304 100.34 359.515 95.8746 364.618 91.9197C367.169 89.9423 369.785 88.1562 372.017 85.7322C376.801 80.4377 377.248 76.419 373.293 70.678C372.783 69.9763 372.209 69.2746 371.698 68.6367" fill="#B6B6F6"/>
<path d="M354.348 107.102C355.304 100.34 359.515 95.8746 364.618 91.9197C367.169 89.9423 369.785 88.1562 372.017 85.7322C376.801 80.4377 377.248 76.419 373.293 70.678C372.783 69.9763 372.209 69.2746 371.698 68.6367" stroke="white" stroke-width="3.5" stroke-miterlimit="10"/>
<path d="M493.82 853.899V864.424C459.055 863.276 463.01 779.138 464.541 765.615C474.237 679.436 482.211 594.469 480.361 507.78C480.105 494.512 479.276 481.244 477.745 468.039C475.066 445.075 463.265 423.897 445.022 409.672C431.179 398.828 416.189 389.515 399.412 384.348C353.867 370.314 310.363 351.433 267.497 330.701C254.739 324.514 241.534 319.219 227.373 316.923C223.673 316.349 219.272 315.328 216.593 318.9C213.786 322.664 216.976 326.172 218.507 329.489C223.099 339.632 231.838 346.138 239.812 353.346C256.908 368.847 275.215 382.689 295.564 393.725C297.988 395.065 302.325 395.958 300.731 399.976C299.646 402.719 296.01 401.89 293.459 401.762C273.046 400.869 254.547 392.896 236.559 384.603C212.447 373.504 186.165 369.804 160.522 358.45C167.922 397.297 182.848 429.447 213.595 453.623C249.763 482.073 289.759 503.761 331.541 522.196C353.867 532.083 364.201 546.819 364.52 571.696C365.668 662.213 352.846 750.433 325.098 836.612C324.014 839.866 322.929 843.183 321.717 846.372C308.513 882.796 292.502 896.383 253.59 894.979C181.254 892.428 316.55 893.512 234.9 895.49C194.394 896.447 297.095 893.002 263.414 892.619C232.859 892.237 294.097 889.557 261.628 894.342C280.956 891.471 235.985 893.767 246.637 893.321C330.711 889.366 187.888 900.274 231.711 893.385C294.224 883.625 192.544 901.295 249.955 889.812C281.913 883.434 302.389 877.82 314.318 845.16C329.882 802.549 339.514 758.343 346.467 713.563C353.867 666.168 356.929 618.39 356.418 570.357C356.227 551.284 349.147 538.909 331.286 530.935C293.459 514.031 257.099 494.512 222.908 470.718C185.974 445.011 162.181 411.139 154.654 367.125C151.528 348.69 138.068 341.163 125.757 328.15C122.313 360.299 123.269 389.324 132.71 417.837C134.305 422.685 139.28 429.383 134.56 432.572C128.436 436.719 124.992 428.426 121.356 424.79C59.1614 362.532 42.7038 339.632 4.94071 263.85C4.62177 263.149 4.17524 262.511 3.98388 261.745C2.32536 255.813 -3.86218 248.605 3.60114 244.267C10.0438 240.567 16.7417 244.969 20.8242 251.539C15.7849 251.539 10.4266 244.267 6.34407 250.072C2.96325 254.856 8.19395 260.151 10.8093 264.616C20.4415 281.137 30.3925 297.467 40.2161 313.861C46.4674 324.259 52.7187 334.592 58.97 344.926C48.0621 321.452 38.3662 297.786 29.8822 273.546C27.2669 266.019 25.9273 257.918 20.7604 251.412C23.8861 248.413 23.5033 244.65 23.6309 240.759C24.0774 225.896 33.6458 219.517 47.7432 224.875C58.396 228.958 65.7955 237.187 69.4315 247.457C78.3619 272.908 101.007 287.389 116.125 307.865C117.592 309.842 119.059 311.884 122.376 308.567C133.476 297.531 145.404 300.912 149.933 316.157C152.038 323.11 153.824 330.255 154.909 337.399C156.121 345.437 160.267 350.667 167.411 353.984C170.154 355.26 172.77 357.301 175.704 357.939C210.469 365.211 241.79 382.243 275.47 392.513C278.277 393.342 281.084 393.98 284.209 394.108C262.521 379.947 242.874 363.617 224.375 345.819C218.443 340.078 213.85 333.572 211.171 325.79C208.492 318.007 212.574 311.628 220.994 310.799C232.094 309.779 242.683 315.456 251.932 318.454C257.864 320.368 263.797 322.409 269.346 325.215C311.128 346.266 353.994 364.382 398.647 378.479C414.403 383.455 428.819 391.556 442.342 401.252C467.986 419.751 481.828 444.756 483.486 476.077C489.482 516.519 493.246 563.212 491.906 615.009C491.332 637.399 490.631 653.857 487.888 674.014C484.762 697.042 482.211 701.699 481.573 703.995C473.663 731.616 453.314 828.001 485.272 855.749C487.377 857.599 491.205 859.13 494.139 859.194M119.697 408.141C118.868 394.299 113.829 381.095 114.467 367.444C115.168 353.219 110.32 341.354 102.538 330C91.949 314.499 81.8065 298.488 76.2569 280.499C70.3245 261.107 55.4617 252.113 39.0679 244.267C36.1336 242.864 32.5614 240.376 29.4995 243.31C26.5652 246.117 28.5427 249.817 29.4357 253.07C34.9854 273.419 43.0228 292.874 51.9533 311.947C68.7936 347.797 90.9284 380.074 119.633 408.205L119.697 408.141ZM113.191 337.527C113.382 329.617 119.123 320.686 114.594 314.18C106.238 301.932 95.5212 291.28 85.8252 279.925C90.2267 301.741 101.9 319.283 113.191 337.527Z" fill="#B6B6F6"/>
<path d="M493.82 853.899V864.424C459.055 863.276 463.01 779.139 464.541 765.615C474.237 679.436 482.211 594.469 480.361 507.78C480.105 494.512 479.276 481.244 477.745 468.039C475.066 445.075 463.265 423.897 445.022 409.672C431.179 398.828 416.189 389.515 399.412 384.348C353.867 370.314 310.363 351.433 267.497 330.701C254.739 324.514 241.534 319.219 227.373 316.923C223.673 316.349 219.272 315.328 216.593 318.9C213.786 322.664 216.976 326.172 218.507 329.489C223.099 339.632 231.838 346.138 239.812 353.346C256.908 368.847 275.215 382.689 295.564 393.725C297.988 395.065 302.325 395.958 300.731 399.976C299.646 402.719 296.01 401.89 293.459 401.762C273.046 400.869 254.547 392.896 236.559 384.603C212.447 373.504 186.165 369.804 160.522 358.45C167.922 397.297 182.848 429.447 213.595 453.623C249.763 482.073 289.759 503.761 331.541 522.196C353.867 532.083 364.201 546.819 364.52 571.696C365.668 662.213 352.846 750.433 325.098 836.612C324.014 839.866 322.929 843.183 321.717 846.372C308.513 882.796 292.502 896.383 253.59 894.98C181.254 892.428 316.55 893.512 234.9 895.49C194.394 896.447 297.095 893.002 263.414 892.619C232.859 892.237 294.097 889.557 261.628 894.342C280.956 891.471 235.985 893.767 246.637 893.321C330.711 889.366 187.888 900.274 231.711 893.385C294.224 883.625 192.544 901.295 249.955 889.813C281.913 883.434 302.389 877.82 314.318 845.16C329.882 802.549 339.514 758.343 346.467 713.563C353.867 666.168 356.929 618.39 356.418 570.357C356.227 551.284 349.147 538.909 331.286 530.935C293.459 514.031 257.099 494.512 222.908 470.718C185.974 445.011 162.181 411.139 154.654 367.125C151.528 348.69 138.068 341.163 125.757 328.15C122.313 360.299 123.269 389.324 132.71 417.837C134.305 422.685 139.28 429.383 134.56 432.572C128.436 436.719 124.992 428.426 121.356 424.79C59.1614 362.532 42.7038 339.632 4.94071 263.85C4.62177 263.149 4.17524 262.511 3.98388 261.745C2.32536 255.813 -3.86218 248.605 3.60114 244.267C10.0438 240.567 16.7417 244.969 20.8242 251.539C15.7849 251.539 10.4266 244.267 6.34407 250.072C2.96325 254.856 8.19395 260.151 10.8093 264.616C20.4415 281.137 30.3925 297.467 40.2161 313.861C46.4674 324.259 52.7187 334.592 58.97 344.926C48.0621 321.452 38.3662 297.786 29.8822 273.546C27.2669 266.019 25.9273 257.918 20.7604 251.412C23.8861 248.413 23.5033 244.65 23.6309 240.759C24.0774 225.896 33.6458 219.517 47.7432 224.875C58.396 228.958 65.7955 237.187 69.4315 247.457C78.3619 272.908 101.007 287.389 116.125 307.865C117.592 309.842 119.059 311.884 122.376 308.567C133.476 297.531 145.404 300.912 149.933 316.157C152.038 323.11 153.824 330.255 154.909 337.399C156.121 345.437 160.267 350.667 167.411 353.984C170.154 355.26 172.77 357.301 175.704 357.939C210.469 365.211 241.79 382.243 275.47 392.513C278.277 393.342 281.084 393.98 284.209 394.108C262.521 379.947 242.874 363.617 224.375 345.819C218.443 340.078 213.85 333.572 211.171 325.79C208.492 318.007 212.574 311.628 220.994 310.799C232.094 309.779 242.683 315.456 251.932 318.454C257.864 320.368 263.797 322.409 269.346 325.215C311.128 346.266 353.994 364.382 398.647 378.479C414.403 383.455 428.819 391.556 442.342 401.252C467.986 419.751 481.828 444.756 483.486 476.077C489.482 516.519 493.246 563.213 491.906 615.009C491.332 637.399 490.631 653.857 487.888 674.014C484.762 697.042 482.211 701.699 481.573 703.995C473.663 731.616 453.314 828.001 485.272 855.749C487.377 857.599 491.205 859.13 494.139 859.194M119.697 408.141C118.868 394.299 113.829 381.095 114.467 367.444C115.168 353.219 110.32 341.354 102.538 330C91.949 314.499 81.8065 298.488 76.2569 280.499C70.3245 261.107 55.4617 252.113 39.0679 244.267C36.1336 242.864 32.5614 240.376 29.4995 243.31C26.5652 246.117 28.5427 249.817 29.4357 253.07C34.9854 273.419 43.0228 292.874 51.9533 311.947C68.7936 347.797 90.9284 380.074 119.633 408.205L119.697 408.141ZM113.191 337.527C113.382 329.617 119.123 320.686 114.594 314.18C106.238 301.932 95.5212 291.28 85.8252 279.925C90.2267 301.741 101.9 319.283 113.191 337.527Z" stroke="#B6B6F6" stroke-width="1.42" stroke-miterlimit="10"/>
<path d="M481.607 695.3L474.144 724.708C477.205 723.943 475.611 723.049 477.652 721.136C508.079 692.048 518.158 639.996 508.845 613.013C508.079 610.781 496.98 555.858 492.642 533.149C488.879 513.311 487.603 504.317 485.881 482.118C481.862 430.896 479.183 381.65 483.074 341.272C483.202 310.079 495.704 284.627 520.391 264.98C533.34 254.646 547.373 245.907 562.81 240.166C606.697 223.964 648.607 203.87 689.24 180.842C694.662 177.78 700.467 175.42 706.336 173.251C715.458 169.871 725.728 163.683 736.827 164.13C745.311 164.512 749.712 170.381 747.416 178.482C745.12 186.583 740.909 193.026 735.232 199.022C717.626 217.585 698.872 234.808 677.886 249.862C680.948 249.607 683.754 248.841 686.497 247.885C719.604 235.956 750.031 217.521 784.35 208.591C787.22 207.825 789.708 205.656 792.387 204.253C799.34 200.617 803.168 195.131 803.997 187.157C804.699 180.013 806.166 172.869 807.888 165.852C811.652 150.543 823.389 146.588 835.062 156.921C838.571 160.047 839.91 157.942 841.25 155.901C855.347 134.914 877.163 119.35 884.818 93.7065C887.88 83.3088 894.896 74.7611 905.358 70.2321C919.136 64.1721 929.087 69.9769 930.235 84.7122C930.554 88.5395 930.363 92.3669 933.616 95.1736C928.768 101.871 927.875 109.973 925.579 117.564C918.371 141.995 909.823 165.916 900.127 189.773C905.868 179.184 911.545 168.595 917.222 158.006C926.217 141.229 935.339 124.58 944.078 107.676C946.438 103.083 951.413 97.5976 947.777 93.0686C943.376 87.5189 938.4 95.1098 933.425 95.3012C937.188 88.6033 943.695 83.8829 950.265 87.2638C957.92 91.1549 952.115 98.6182 950.776 104.551C950.584 105.252 950.201 105.954 949.882 106.656C916.01 183.649 900.765 207.187 841.824 272.061C838.379 275.888 835.381 284.244 829.066 280.481C824.218 277.547 828.811 270.657 830.15 265.746C838.124 237.041 837.614 208.208 832.511 176.568C820.901 190.092 807.824 198.257 805.655 216.628C800.361 260.579 778.354 295.408 742.759 322.709C709.844 347.97 674.505 369.211 637.635 387.838C620.157 396.641 613.778 409.271 614.543 428.153C616.457 475.803 622.007 522.943 631.766 569.573C641.016 613.587 652.881 656.9 670.614 698.363C684.201 730.13 704.932 734.595 737.146 739.316C795.066 747.8 692.621 735.425 755.517 741.931C799.659 746.46 656.453 742.952 740.59 742.569C751.243 742.569 706.208 742.569 725.664 744.355C692.94 741.229 754.241 740.783 723.75 742.697C690.133 744.802 792.898 743.016 752.391 744.1C670.805 746.269 805.847 738.359 733.701 744.546C694.917 747.863 678.269 735.233 663.214 699.766C661.875 696.641 660.599 693.451 659.387 690.262C627.301 606.315 610.014 519.499 606.506 429.747C605.549 405.061 615.054 389.943 636.869 379.035C677.694 358.622 716.542 335.148 751.18 305.103C780.65 279.588 793.982 246.992 799.34 208.144C774.335 220.647 748.245 225.686 724.707 237.87C707.165 246.992 689.049 255.794 668.764 257.772C666.212 258.027 662.576 258.984 661.364 256.369C659.578 252.477 663.852 251.329 666.212 249.926C685.987 237.934 703.529 223.262 719.795 207.06C727.322 199.533 735.806 192.643 739.825 182.373C741.165 178.992 744.226 175.356 741.228 171.784C738.422 168.403 734.02 169.615 730.384 170.381C716.414 173.315 703.465 179.248 691.026 186.009C649.308 208.718 606.825 229.641 562.045 245.843C545.587 251.776 531.107 261.791 517.775 273.209C500.297 288.263 489.581 309.824 488.05 332.724C487.157 345.865 487.093 359.069 487.475 372.21C490.091 458.261 502.338 542.016 516.436 626.919C518.668 640.251 512.162 720.817 472.549 725.92M905.485 156.347C913.459 137.019 920.476 117.372 925.005 96.8959C925.706 93.6427 927.492 89.8791 924.431 87.2638C921.177 84.457 917.796 87.1362 914.926 88.6671C898.915 97.2786 884.626 106.911 879.651 126.43C875.058 144.483 865.681 160.876 855.921 176.824C848.777 188.497 844.503 200.489 845.906 214.523C847.246 228.046 842.908 241.378 842.781 255.157C870.018 225.814 890.495 192.771 905.485 156.347ZM870.019 126.303C860.897 138.04 850.754 149.139 843.036 161.706C838.889 168.403 845.013 176.951 845.651 184.797C855.985 166.107 866.765 148.182 870.019 126.303Z" fill="#B6B6F6"/>
<path d="M481.607 695.3L474.144 724.708C477.205 723.943 475.611 723.05 477.652 721.136C508.079 692.048 518.158 639.996 508.845 613.013C508.079 610.781 496.98 555.858 492.642 533.149C488.879 513.311 487.603 504.317 485.881 482.118C481.862 430.896 479.183 381.65 483.074 341.272C483.202 310.079 495.704 284.627 520.391 264.98C533.34 254.646 547.373 245.907 562.81 240.166C606.697 223.964 648.607 203.87 689.24 180.842C694.662 177.78 700.467 175.42 706.336 173.251C715.458 169.871 725.728 163.683 736.827 164.13C745.311 164.512 749.712 170.381 747.416 178.482C745.12 186.583 740.909 193.026 735.232 199.022C717.626 217.585 698.872 234.808 677.886 249.862C680.948 249.607 683.754 248.841 686.497 247.885C719.604 235.956 750.031 217.521 784.35 208.591C787.22 207.825 789.708 205.656 792.387 204.253C799.34 200.617 803.168 195.131 803.997 187.157C804.699 180.013 806.166 172.869 807.888 165.852C811.652 150.543 823.389 146.588 835.062 156.921C838.571 160.047 839.91 157.942 841.25 155.901C855.347 134.914 877.163 119.35 884.818 93.7065C887.88 83.3088 894.896 74.7611 905.358 70.2321C919.136 64.1721 929.087 69.9769 930.235 84.7122C930.554 88.5395 930.363 92.3669 933.616 95.1736C928.768 101.871 927.875 109.973 925.579 117.564C918.371 141.995 909.823 165.916 900.127 189.773C905.868 179.184 911.545 168.595 917.222 158.006C926.217 141.229 935.339 124.58 944.078 107.676C946.438 103.083 951.413 97.5976 947.777 93.0686C943.376 87.5189 938.4 95.1098 933.425 95.3012C937.188 88.6033 943.695 83.8829 950.265 87.2638C957.92 91.1549 952.115 98.6182 950.776 104.551C950.584 105.252 950.201 105.954 949.882 106.656C916.01 183.649 900.765 207.187 841.824 272.061C838.379 275.888 835.381 284.244 829.066 280.481C824.218 277.547 828.811 270.657 830.15 265.746C838.124 237.041 837.614 208.208 832.511 176.568C820.901 190.092 807.824 198.257 805.655 216.628C800.361 260.579 778.354 295.408 742.759 322.709C709.844 347.97 674.505 369.211 637.635 387.838C620.157 396.641 613.778 409.271 614.543 428.153C616.457 475.803 622.007 522.943 631.766 569.573C641.016 613.587 652.881 656.9 670.614 698.363C684.201 730.13 704.932 734.595 737.146 739.316C795.066 747.8 692.621 735.425 755.517 741.931C799.659 746.46 656.453 742.952 740.59 742.569C751.243 742.569 706.208 742.569 725.664 744.355C692.94 741.229 754.241 740.783 723.75 742.697C690.133 744.802 792.898 743.015 752.391 744.1C670.805 746.269 805.847 738.359 733.701 744.546C694.918 747.863 678.269 735.233 663.214 699.766C661.875 696.641 660.599 693.451 659.387 690.262C627.301 606.315 610.014 519.499 606.506 429.747C605.549 405.061 615.054 389.943 636.869 379.035C677.694 358.622 716.542 335.148 751.179 305.103C780.65 279.588 793.982 246.992 799.34 208.144C774.335 220.647 748.245 225.686 724.707 237.87C707.165 246.992 689.049 255.794 668.764 257.772C666.212 258.027 662.576 258.984 661.364 256.369C659.578 252.477 663.852 251.329 666.212 249.926C685.987 237.934 703.529 223.262 719.795 207.06C727.322 199.533 735.806 192.643 739.825 182.373C741.165 178.992 744.226 175.356 741.228 171.784C738.422 168.403 734.02 169.615 730.384 170.381C716.414 173.315 703.465 179.248 691.026 186.009C649.308 208.718 606.825 229.641 562.045 245.843C545.587 251.776 531.107 261.791 517.775 273.209C500.297 288.263 489.581 309.824 488.05 332.724C487.157 345.865 487.093 359.069 487.475 372.21C490.091 458.261 502.338 542.016 516.436 626.919C518.668 640.251 512.162 720.817 472.549 725.92M905.485 156.347C913.459 137.019 920.476 117.372 925.005 96.8959C925.706 93.6427 927.492 89.8791 924.431 87.2638C921.177 84.457 917.796 87.1362 914.926 88.6671C898.915 97.2786 884.626 106.911 879.651 126.43C875.058 144.483 865.681 160.876 855.921 176.824C848.777 188.497 844.503 200.489 845.906 214.523C847.246 228.046 842.908 241.378 842.781 255.157C870.018 225.814 890.495 192.771 905.485 156.347ZM870.019 126.303C860.897 138.04 850.754 149.139 843.036 161.706C838.889 168.403 845.013 176.951 845.651 184.797C855.985 166.107 866.765 148.182 870.019 126.303Z" stroke="#B6B6F6" stroke-width="1.42" stroke-miterlimit="10"/>
</svg>
